<svg xmlns="http://www.w3.org/2000/svg" viewBox="0 0 350.16 41.18"><title>DoorDash logo</title><path d="M435.8,502.78v17.6h4.51a8.7,8.7,0,0,0,8.58-8.8,8.55,8.55,0,0,0-8.3-8.8H435.8Zm4.51-5.58a14.38,14.38,0,1,1,0,28.76h-9.94a.68.68,0,0,1-.72-.72V498a.68.68,0,0,1,.72-.72Z" transform="translate(-337 -491.41)" style="fill:#ff3008"/><path d="M476.79,521a9.44,9.44,0,1,0-9.44-9.44A9.43,9.43,0,0,0,476.79,521Zm0-24.39c8.8,0,15.59,6.8,15.59,14.95s-6.8,15-15.59,15-15.59-6.8-15.59-15S468,496.63,476.79,496.63Z" transform="translate(-337 -491.41)" style="fill:#ff3008"/><path d="M513.84,521a9.44,9.44,0,1,0-9.44-9.44A9.43,9.43,0,0,0,513.84,521Zm0-24.39c8.8,0,15.59,6.8,15.59,14.95s-6.8,15-15.59,15-15.59-6.8-15.59-15S505,496.63,513.84,496.63Z" transform="translate(-337 -491.41)" style="fill:#ff3008"/><path d="M550,502.78h-6.37v7.58H550a3.7,3.7,0,0,0,3.86-3.58v-.14a3.76,3.76,0,0,0-3.65-3.86ZM537.52,498a.68.68,0,0,1,.72-.72h11.95c5.72,0,9.87,4.15,9.87,9.44a9.08,9.08,0,0,1-5.15,8.37l5.51,9.73a.7.7,0,0,1-.21,1,1,1,0,0,1-.43.14H554.9a.75.75,0,0,1-.64-.36L549,515.95h-5.29v9.3a.68.68,0,0,1-.72.72H538.3a.68.68,0,0,1-.72-.72Z" transform="translate(-337 -491.41)" style="fill:#ff3008"/><path d="M576.07,502.86v17.6h4.51a8.7,8.7,0,0,0,8.58-8.8,8.55,8.55,0,0,0-8.3-8.8h-4.79Zm4.51-5.51a14.38,14.38,0,1,1,0,28.76h-9.94a.68.68,0,0,1-.72-.72V498.14a.68.68,0,0,1,.72-.72Z" transform="translate(-337 -491.41)" style="fill:#ff3008"/><path d="M614.05,504.36l-3.51,9.44h6.94Zm-5.51,14.74-2.29,6.29a.71.71,0,0,1-.72.5h-4.93a.71.71,0,0,1-.79-.64.53.53,0,0,1,.07-.36l10.73-27.18a.78.78,0,0,1,.72-.5h5.51a.69.69,0,0,1,.72.5l10.73,27.18a.71.71,0,0,1-.36.93.64.64,0,0,1-.36.07h-4.94a.78.78,0,0,1-.72-.5l-2.29-6.29Z" transform="translate(-337 -491.41)" style="fill:#ff3008"/><path d="M634,504.93c0-4.51,3.86-8.37,10-8.37A12.64,12.64,0,0,1,653,500a.77.77,0,0,1,0,1.07l-2.79,2.79a.77.77,0,0,1-1,.07,6.94,6.94,0,0,0-4.79-1.86c-2.43,0-4.29,1.43-4.29,3.08,0,5.36,14.52,2.29,14.52,12.52,0,5.15-3.86,9-10.87,9a14.48,14.48,0,0,1-10.37-4.15.69.69,0,0,1,0-1l2.65-2.65a.69.69,0,0,1,1,0,9.39,9.39,0,0,0,6.29,2.58c3.08,0,5.08-1.65,5.08-3.72C648.53,512.23,634,515.3,634,504.93Z" transform="translate(-337 -491.41)" style="fill:#ff3008"/><path d="M681.08,497.92v10.73h-12.3V497.92a.71.71,0,0,0-.64-.72h-4.72a.68.68,0,0,0-.72.72v27.25a.71.71,0,0,0,.65.72h4.72a.68.68,0,0,0,.72-.72V514.23h12.3V525.1a.71.71,0,0,0,.64.72h4.72a.71.71,0,0,0,.72-.64V497.92a.71.71,0,0,0-.64-.72h-4.72a.71.71,0,0,0-.72.64Z" transform="translate(-337 -491.41)" style="fill:#ff3008"/><path d="M406.3,501.1a18.38,18.38,0,0,0-16.2-9.69H338.74a1.79,1.79,0,0,0-1.74,1.82,2.07,2.07,0,0,0,.51,1.24l11.19,11.3a5.15,5.15,0,0,0,3.7,1.53h36.18a4.7,4.7,0,0,1,.07,9.4H363.73a1.79,1.79,0,0,0-1.74,1.82,2.07,2.07,0,0,0,.51,1.24l11.19,11.3a5.15,5.15,0,0,0,3.7,1.53h11.26C403.39,532.52,414.44,516.77,406.3,501.1Z" transform="translate(-337 -491.41)" style="fill:#ff3008"/></svg>